<mxfile host="app.diagrams.net" modified="2022-08-31T01:29:25.025Z" agent="5.0 (Windows NT 10.0; Win64; x64) AppleWebKit/537.36 (KHTML, like Gecko) Chrome/104.0.5112.102 Safari/537.36 Edg/104.0.1293.70" etag="ElmXv2CLSYqGBAekQgSt" version="20.2.7" type="github">
  <diagram id="rq7wjAWWb8B68FOzQnol" name="第 1 页">
    <mxGraphModel dx="1422" dy="794" grid="1" gridSize="10" guides="1" tooltips="1" connect="1" arrows="1" fold="1" page="1" pageScale="1" pageWidth="1169" pageHeight="827" math="0" shadow="0">
      <root>
        <mxCell id="0" />
        <mxCell id="1" parent="0" />
        <mxCell id="EbDOotiv7hUIplihaeXt-1" value="&lt;p class=&quot;MsoNormal&quot;&gt;&lt;span style=&quot;font-family: &amp;quot;Times New Roman&amp;quot;;&quot;&gt;&lt;font style=&quot;font-size: 22px;&quot;&gt;↕(w0)↑(r0,w1)↑(r1,w0)↕(r0)↓(r0,w1)↓(r1,w0)↕(r0)&lt;/font&gt;&lt;/span&gt;&lt;/p&gt;" style="text;html=1;strokeColor=none;fillColor=none;align=center;verticalAlign=middle;whiteSpace=wrap;rounded=0;" vertex="1" parent="1">
          <mxGeometry x="370" y="50" width="420" height="20" as="geometry" />
        </mxCell>
        <mxCell id="EbDOotiv7hUIplihaeXt-2" value="&lt;p style=&quot;font-size: 17px;&quot; class=&quot;MsoNormal&quot;&gt;&lt;span&gt;&amp;lt;x,x,x&amp;gt;↑w0&amp;lt;0,0,x&amp;gt;;&lt;/span&gt;&lt;span style=&quot;font-family: &amp;quot;Times New Roman&amp;quot;; background-color: initial;&quot;&gt;&amp;lt;1,0,0&amp;gt;↑r0&amp;lt;1,0,0&amp;gt; &amp;lt;1,0,0&amp;gt;↑w1&amp;lt;1,1,0&amp;gt;;&lt;/span&gt;&lt;span style=&quot;font-family: &amp;quot;Times New Roman&amp;quot;; background-color: initial;&quot;&gt;&amp;lt;0,1,1&amp;gt;↑r1&amp;lt;0,1,1&amp;gt;&amp;lt;0,1,1&amp;gt;↑w0&amp;lt;0,0,1&amp;gt;;&lt;/span&gt;&lt;span style=&quot;font-family: &amp;quot;Times New Roman&amp;quot;; background-color: initial;&quot;&gt;&amp;lt;0,0,0&amp;gt;↕r0&amp;lt;0,0,0&amp;gt;;&lt;/span&gt;&lt;span style=&quot;font-family: &amp;quot;Times New Roman&amp;quot;; background-color: initial;&quot;&gt;&amp;lt;0,0,1&amp;gt;↓r0&amp;lt;0,0,1&amp;gt;&amp;lt;0,0,1&amp;gt;↓w1&amp;lt;0,1,1&amp;gt;;&lt;/span&gt;&lt;span style=&quot;font-family: &amp;quot;Times New Roman&amp;quot;; background-color: initial;&quot;&gt;&amp;lt;1,1,0&amp;gt;↓r1&amp;lt;1,1,0&amp;gt;&amp;lt;1,1,0&amp;gt;↓w0&amp;lt;1,0,0&amp;gt;;&lt;/span&gt;&lt;span style=&quot;font-family: &amp;quot;Times New Roman&amp;quot;; background-color: initial;&quot;&gt;&amp;lt;0,0,0&amp;gt;↕r0&amp;lt;0,0,0&amp;gt;&lt;/span&gt;&lt;/p&gt;" style="text;html=1;strokeColor=none;fillColor=none;align=center;verticalAlign=middle;whiteSpace=wrap;rounded=0;" vertex="1" parent="1">
          <mxGeometry y="120" width="1160" height="50" as="geometry" />
        </mxCell>
      </root>
    </mxGraphModel>
  </diagram>
</mxfile>
